<?xml version="1.0" encoding="UTF-8"?>
<svg id="Layer_1" data-name="Layer 1" xmlns="http://www.w3.org/2000/svg" viewBox="0 0 777 916.31">
  <defs>
    <style>
      .cls-1 {
        fill: #222;
      }

      .cls-2 {
        fill: #78c1a9;
      }
    </style>
  </defs>
  <g>
    <path class="cls-1" d="M286.75,644.23c-7.38-.08-14.45-3.75-18.9-9.8-3.63-4.93-7.13-13.57-3.19-26.7,2.86-9.49,6.02-33.64,4.38-44.42-.48-3.12-2.76-5.49-8.67-10.99-6.61-6.14-14.83-13.78-19.71-26.25-.38-.97-.74-1.91-1.09-2.83-.39-1.02-.85-2.21-1.28-3.29-5.31.72-5.8,1.74-5.74,6.02.01.73.09,1.63.17,2.58.53,7.07,1.42,18.91-6.96,27.94-4.75,5.12-11.39,7.95-18.69,7.95h-.68c-17.64-.42-35.88-18.93-35.88-49.16,0-28.08,21.18-60.76,55.39-64.59,9.94-1.12,50.08-15.84,49.73-62.85-.2-26.39-6.78-35.91-15.11-47.96-.93-1.34-1.85-2.68-2.76-4.03-20.3-30.1-26.17-60.51-21.67-112.21l.87-9.93c.41-4.66,4.3-8.23,8.98-8.23h46.26c5.09,0,9.17,4.21,9.01,9.29l-.35,11.21c-.37,13.16,2.41,44.05,13.35,55.29,2.42,2.49,4.8,3.5,8.23,3.5,9.6,0,13.63-1.97,20.3-5.24,9.4-4.61,21.1-10.34,44.3-10.34,59.01,0,120.06,50.28,120.06,134.43,0,76.28-37.83,118.32-66.28,143.31-23.57,20.7-57.45,33.89-90.62,35.29-3.99.17-9.15.38-13.25.63-2.21,5.21-4.8,13.33-5.97,18.52,7.79,11.57,11.84,29.46-2.55,38.84-4.2,2.74-9.18,4.03-14.19,4.03h-27.45Z"/>
    <path class="cls-1" d="M503.45,535.53c-16.77,0-33.85-8.75-37.1-10.5l-18.77-10.12,32.27-51,15.17,7.85c.72.25,3.26,1.06,6.56,1.06,4.7,0,8.9-1.62,12.82-4.96l.52-.44.55-.4c2.2-1.62,8.15-5.4,15.77-5.4,6.66,0,12.94,2.89,17.21,7.92,7.75,9.12,5.79,21.04,5.15,24.95-4.21,25.68-28.81,41.02-50.16,41.02Z"/>
    <path class="cls-1" d="M381.99,644.23l-3.2-1.12c-8.18-2.87-18.18-11.39-19.42-25.95-.46-5.44-3.06-28.49-4.02-36.91l-2.23-19.57,19.55-2.42c5.08-.64,11.72-2.23,13.79-3.29l26.74-18.01,3.91,32.24c1.37,11.27,3.48,23.56,4.99,29.4,5.13,4.09,12.31,11.13,12.26,22.09-.02,4.49-1.42,13.03-10.55,19.71l-5.24,3.84h-36.58Z"/>
    <path class="cls-1" d="M646.05,311.05h-48.75c-29.32,0-53.08,23.79-53.08,53.1v85.87c0,7.88,7.66,13.48,15.18,11.08l28.76-9.22h57.89c29.32,0,53.08-23.77,53.08-53.1v-34.63c0-29.32-23.77-53.1-53.08-53.1ZM679.25,398.78c0,18.35-14.87,33.22-33.2,33.22h-61l-20.95,6.71v-74.56c0-18.35,14.88-33.2,33.2-33.2h48.75c18.33,0,33.2,14.86,33.2,33.2v34.63Z"/>
  </g>
  <path class="cls-2" d="M487.18,403.6c0-74.15-52.8-114.54-100.18-114.54-35.58,0-34.84,15.58-64.59,15.58-43.92,0-41.45-79.29-41.45-79.29h-25.09c-4.1,47.04.74,73.27,18.34,99.36,9.69,14.37,21,27.25,21.27,62.97.42,55.65-44.82,80.21-67.39,82.76-22.57,2.53-37.72,25.01-37.72,44.83s10.49,29.14,16.47,29.28c8.64.2,5.93-11.8,5.82-18.3-.09-6.51,1.38-23.14,23.16-26.02,16.64-2.2,18.35,5.82,23.35,18.6,7.05,18.03,26.64,22.57,29.52,41.48,2.26,14.84-1.72,42.28-4.99,53.13-3.25,10.84,3.27,10.92,3.27,10.92h29.48c4.46,0-.69-12.13-4.88-15.25-4.21-3.11,4.27-28.48,8.33-36.89,4.07-8.4-2.33-8.53,29.42-9.87,25.78-1.08,56.17-10.9,78.33-30.36,23.46-20.6,59.52-58.09,59.52-128.37ZM339.96,370.24c-2.15,0-4.23-1.08-5.42-3.05-1.81-2.98-.87-6.87,2.13-8.69,13.7-8.31,26.14-6.36,26.66-6.27,3.43.58,5.77,3.85,5.19,7.28-.58,3.43-3.81,5.75-7.25,5.21-.45-.07-8.6-1.14-18.04,4.61-1.03.61-2.15.92-3.27.92ZM359.21,409.97c-6.89,0-12.47-5.58-12.47-12.47s5.58-12.47,12.47-12.47,12.47,5.58,12.47,12.47-5.58,12.47-12.47,12.47ZM426.77,442.97c-9.69,6.22-18.98,8.48-27.17,8.48-12.74,0-22.85-5.44-27.83-9.98-3.33-3.02-3.58-8.17-.54-11.5,3-3.31,8.12-3.56,11.44-.58,1.55,1.36,15.49,12.62,35.32-.11,3.78-2.42,8.82-1.34,11.24,2.44,2.42,3.8,1.32,8.82-2.46,11.24ZM438.23,409.28c-6.89,0-12.47-5.57-12.47-12.47s5.58-12.47,12.47-12.47,12.47,5.58,12.47,12.47-5.57,12.47-12.47,12.47ZM456.96,365.33c-1.19,1.97-3.27,3.04-5.4,3.04-1.12,0-2.26-.29-3.29-.92-9.51-5.77-17.69-4.65-18.04-4.59-3.43.51-6.67-1.84-7.21-5.26-.54-3.43,1.75-6.65,5.17-7.23.52-.09,12.96-2.06,26.66,6.27,2.98,1.83,3.94,5.71,2.11,8.69Z"/>
  <path class="cls-2" d="M486.92,489.93s20.91,9.61,40.36-6.9c0,0,9.18-6.77,6.71,8.26-2.47,15.02-17.94,24.36-30.54,24.36s-27.67-8.12-27.67-8.12l11.14-17.59Z"/>
  <path class="cls-2" d="M375.11,577.99s15.62-1.93,22.26-6.4c0,0,4.41,36.43,8.74,39.82,4.34,3.39,12.4,8.22,5.95,12.95h-26.69s-5.6-1.97-6.19-8.88-4.08-37.48-4.08-37.48Z"/>
  <path class="cls-1" d="M499.38,760.42H191.26c-31.47,0-56.98-25.51-56.98-56.98V208.81c0-31.47,25.51-56.98,56.98-56.98h308.12c31.47,0,56.98,25.51,56.98,56.98v82.71c0,5.49-4.45,9.94-9.94,9.94h0c-5.49,0-9.94-4.45-9.94-9.94v-82.71c0-20.49-16.61-37.1-37.1-37.1H191.26c-20.49,0-37.1,16.61-37.1,37.1v494.64c0,20.49,16.61,37.1,37.1,37.1h308.12c20.49,0,37.1-16.61,37.1-37.1v-138.49c0-5.49,4.45-9.94,9.94-9.94h0c5.49,0,9.94,4.45,9.94,9.94v138.49c0,31.47-25.51,56.98-56.98,56.98Z"/>
  <rect class="cls-1" x="144.22" y="658.13" width="402.19" height="19.88"/>
  <circle class="cls-1" cx="345.66" cy="709.14" r="18.37"/>
  <path class="cls-1" d="M607.21,409.37l-21.12-21.12c-3.39-3.39-3.39-8.88,0-12.27h0c3.39-3.39,8.88-3.39,12.27,0l15.03,15.03,31.62-31.62c3.39-3.39,8.88-3.39,12.27,0h0c3.39,3.39,3.39,8.88,0,12.27l-37.71,37.71c-3.41,3.41-8.94,3.41-12.35,0Z"/>
  <g>
    <path class="cls-1" d="M704.18,190.56c-5.3.73-10.16-2.87-11.15-8.12-7.75-41.17-28.46-79.35-58.94-108.34-32.41-30.82-74.17-49.88-118.46-54.26-5.31-.52-9.31-5.06-9.04-10.39h0c.29-5.71,5.3-9.95,10.98-9.39,48.69,4.81,94.59,25.76,130.22,59.64,33.56,31.91,56.34,73.96,64.82,119.3,1.04,5.54-2.85,10.8-8.43,11.57h0Z"/>
    <path class="cls-1" d="M651.27,197.88c-5.16.72-10.03-2.68-11.07-7.79-5.99-29.39-21-56.58-42.85-77.36-23.26-22.12-53.08-35.99-84.78-39.6-5.17-.59-8.95-5.16-8.68-10.36h0c.29-5.73,5.36-10.04,11.06-9.38,35.94,4.12,69.73,19.86,96.1,44.94,24.76,23.54,41.78,54.35,48.6,87.65,1.16,5.65-2.66,11.12-8.37,11.91h0Z"/>
    <path class="cls-1" d="M587.94,200.68c-7.86-38.34-39.53-68.36-78.26-74.16-5.08-.76-8.77-5.2-8.51-10.32v-.02c.3-5.89,5.63-10.19,11.46-9.32,23.05,3.43,44.63,13.9,61.67,30.11,16.96,16.13,28.49,37.03,33.12,59.73,1.18,5.78-2.84,11.33-8.7,11.94h-.02c-5.1.53-9.73-2.92-10.76-7.95Z"/>
  </g>
</svg>